<?xml version="1.0" standalone="no"?>
<!DOCTYPE svg PUBLIC "-//W3C//DTD SVG 20010904//EN"
 "http://www.w3.org/TR/2001/REC-SVG-20010904/DTD/svg10.dtd">
<svg version="1.0" xmlns="http://www.w3.org/2000/svg"
 width="618.000000pt" height="433.000000pt" viewBox="0 0 618.000000 433.000000"
 preserveAspectRatio="xMidYMid meet">

<g transform="translate(0.000000,433.000000) scale(0.100000,-0.100000)"
fill="#000000" stroke="none">
<path d="M1832 2093 c48 -168 58 -185 101 -181 29 3 37 12 88 101 31 54 59
100 62 103 3 3 24 -30 48 -73 64 -118 76 -133 108 -133 16 0 34 7 41 15 6 8
31 80 55 160 l43 145 -47 0 -47 0 -23 -95 c-14 -52 -27 -95 -30 -95 -3 0 -29
42 -56 93 l-50 92 -40 0 -40 0 -47 -90 c-26 -49 -50 -89 -55 -88 -4 1 -19 42
-32 92 l-24 91 -47 0 -48 0 40 -137z"/>
<path d="M2420 2070 l0 -160 50 0 50 0 0 160 0 160 -50 0 -50 0 0 -160z"/>
<path d="M2590 2070 l0 -160 45 0 45 0 0 65 c0 36 3 65 6 65 3 0 40 -29 82
-65 l75 -65 71 0 71 1 -30 25 c-16 14 -65 51 -107 83 l-76 59 99 73 99 74 -65
3 -65 3 -78 -65 -77 -66 -3 65 -3 65 -44 0 -45 0 0 -160z"/>
<path d="M3030 2070 l0 -160 45 0 45 0 0 160 0 160 -45 0 -45 0 0 -160z"/>
<path d="M3216 2193 l-26 -38 139 -5 c77 -3 142 -8 146 -12 18 -18 -13 -28
-88 -28 l-82 0 -23 -35 -22 -35 105 0 c88 0 107 -3 112 -16 10 -27 -17 -34
-138 -34 l-116 0 -27 -41 -27 -40 170 3 c154 3 172 5 198 24 38 28 44 93 13
124 -19 19 -20 23 -6 33 22 17 28 58 13 87 -18 37 -68 49 -198 49 l-116 1 -27
-37z"/>
<path d="M3630 2070 l0 -160 50 0 50 0 0 160 0 160 -50 0 -50 0 0 -160z"/>
<path d="M3800 2070 l0 -160 138 0 139 0 27 38 26 37 -120 3 -120 3 0 119 0
120 -45 0 -45 0 0 -160z"/>
</g>
</svg>
